<?xml version="1.0" encoding="UTF-8"?>
<svg xmlns="http://www.w3.org/2000/svg" xmlns:xlink="http://www.w3.org/1999/xlink" width="110px" height="60px" viewBox="0 0 109 60" version="1.1">
<g id="surface1">
<path style=" stroke:none;fill-rule:nonzero;fill:rgb(0%,0%,0%);fill-opacity:1;" d="M 40.84375 5.253906 C 40.804688 5.285156 40.773438 16.371094 40.773438 29.886719 C 40.773438 54.085938 40.773438 54.460938 40.964844 54.574219 C 41.1875 54.683594 41.773438 54.707031 42.027344 54.613281 C 42.175781 54.554688 42.1875 52.285156 42.1875 29.867188 L 42.1875 5.183594 L 41.550781 5.183594 C 41.199219 5.183594 40.875 5.214844 40.84375 5.253906 Z M 40.84375 5.253906 "/>
<path style=" stroke:none;fill-rule:nonzero;fill:rgb(0%,0%,0%);fill-opacity:1;" d="M 20.800781 8.832031 C 20.597656 9.035156 20.589844 9.136719 20.589844 12.316406 C 20.589844 14.125 20.628906 15.652344 20.667969 15.710938 C 20.902344 16.066406 21.417969 16.085938 21.667969 15.761719 C 21.851562 15.527344 21.851562 9.15625 21.679688 8.914062 C 21.457031 8.628906 21.042969 8.585938 20.800781 8.832031 Z M 20.800781 8.832031 "/>
<path style=" stroke:none;fill-rule:nonzero;fill:rgb(0%,0%,0%);fill-opacity:1;" d="M 33.4375 11.261719 C 33.324219 11.332031 32.234375 13.027344 30.410156 15.984375 C 29.8125 16.941406 29.773438 17.257812 30.1875 17.488281 C 30.640625 17.734375 30.824219 17.550781 32.09375 15.527344 C 32.769531 14.453125 33.546875 13.222656 33.820312 12.792969 C 34.09375 12.378906 34.316406 11.910156 34.316406 11.757812 C 34.316406 11.351562 33.78125 11.046875 33.4375 11.261719 Z M 33.4375 11.261719 "/>
<path style=" stroke:none;fill-rule:nonzero;fill:rgb(0%,0%,0%);fill-opacity:1;" d="M 7.992188 11.542969 C 7.550781 11.847656 7.679688 12.125 9.496094 14.734375 C 10.445312 16.109375 11.304688 17.308594 11.40625 17.417969 C 11.769531 17.792969 12.414062 17.5625 12.414062 17.054688 C 12.414062 16.746094 8.789062 11.585938 8.507812 11.472656 C 8.207031 11.363281 8.253906 11.351562 7.992188 11.542969 Z M 7.992188 11.542969 "/>
<path style=" stroke:none;fill-rule:nonzero;fill:rgb(0%,0%,0%);fill-opacity:1;" d="M 52.601562 14.144531 C 52.5 14.277344 52.066406 15.335938 49.886719 20.78125 C 49.191406 22.511719 48.425781 24.421875 48.183594 25.019531 C 47.941406 25.621094 47.738281 26.160156 47.738281 26.21875 C 47.738281 26.28125 48.253906 26.320312 49.179688 26.320312 L 50.625 26.320312 L 50.785156 25.832031 C 51.027344 25.121094 51.410156 24.15625 51.503906 24.003906 C 51.5625 23.914062 52.148438 23.882812 53.84375 23.882812 C 55.539062 23.882812 56.125 23.914062 56.183594 24.003906 C 56.226562 24.074219 56.449219 24.613281 56.667969 25.203125 L 57.074219 26.269531 L 58.335938 26.332031 C 60.253906 26.433594 60.160156 26.636719 59.242188 24.359375 C 56.164062 16.707031 55.167969 14.257812 55.085938 14.144531 C 55.015625 14.066406 54.632812 14.023438 53.84375 14.023438 C 53.058594 14.023438 52.671875 14.066406 52.601562 14.144531 Z M 54.589844 19.683594 C 54.933594 20.589844 55.207031 21.363281 55.207031 21.390625 C 55.207031 21.421875 54.589844 21.441406 53.84375 21.441406 C 53.097656 21.441406 52.480469 21.421875 52.480469 21.390625 C 52.480469 21.351562 53.371094 18.964844 53.683594 18.152344 C 53.753906 17.976562 53.832031 17.894531 53.882812 17.945312 C 53.933594 17.996094 54.246094 18.78125 54.589844 19.683594 Z M 54.589844 19.683594 "/>
<path style=" stroke:none;fill-rule:nonzero;fill:rgb(0%,0%,0%);fill-opacity:1;" d="M 60.625 14.085938 C 60.535156 14.1875 60.535156 26.199219 60.636719 26.25 C 60.765625 26.339844 67.265625 26.433594 67.386719 26.339844 C 67.46875 26.289062 67.507812 25.882812 67.53125 25.152344 L 67.550781 24.035156 L 65.460938 24.003906 L 63.382812 23.984375 L 63.359375 19.023438 L 63.332031 14.074219 L 62.007812 14.042969 C 61.292969 14.035156 60.667969 14.054688 60.625 14.085938 Z M 60.625 14.085938 "/>
<path style=" stroke:none;fill-rule:nonzero;fill:rgb(0%,0%,0%);fill-opacity:1;" d="M 69.003906 14.085938 C 68.960938 14.125 68.960938 16.878906 68.992188 20.214844 C 69.035156 24.664062 69.082031 26.289062 69.164062 26.339844 C 69.304688 26.433594 75.605469 26.453125 75.835938 26.363281 C 75.96875 26.3125 75.996094 26.109375 75.996094 25.140625 L 75.996094 23.984375 L 71.757812 23.984375 L 71.757812 21.441406 L 73.617188 21.441406 C 74.632812 21.441406 75.542969 21.414062 75.632812 21.382812 C 75.765625 21.332031 75.796875 21.128906 75.796875 20.164062 L 75.796875 19.003906 L 71.75 19.003906 L 71.777344 17.753906 L 71.808594 16.515625 L 73.90625 16.484375 L 76.007812 16.464844 L 75.976562 15.265625 L 75.945312 14.074219 L 72.503906 14.042969 C 70.617188 14.035156 69.042969 14.054688 69.003906 14.085938 Z M 69.003906 14.085938 "/>
<path style=" stroke:none;fill-rule:nonzero;fill:rgb(0%,0%,0%);fill-opacity:1;" d="M 77.683594 14.09375 C 77.640625 14.125 77.613281 16.902344 77.613281 20.242188 L 77.613281 26.320312 L 80.335938 26.320312 L 80.335938 23.902344 L 80.347656 21.492188 L 80.699219 21.902344 C 80.902344 22.125 81.75 23.210938 82.585938 24.308594 L 84.121094 26.320312 L 85.394531 26.320312 C 86.101562 26.320312 86.796875 26.339844 86.957031 26.371094 C 87.695312 26.515625 87.582031 26.320312 85.496094 23.78125 L 83.457031 21.3125 L 83.992188 21.015625 C 85.082031 20.417969 85.714844 19.523438 85.878906 18.355469 C 86.058594 17.09375 85.765625 16.046875 85.019531 15.242188 C 84.464844 14.644531 83.675781 14.277344 82.628906 14.136719 C 81.769531 14.015625 77.792969 13.984375 77.683594 14.09375 Z M 82.355469 16.523438 C 83.292969 17.074219 83.292969 18.710938 82.367188 19.246094 C 82.125 19.390625 81.769531 19.460938 81.175781 19.492188 L 80.335938 19.542969 L 80.335938 16.230469 L 81.175781 16.28125 C 81.769531 16.3125 82.125 16.382812 82.355469 16.523438 Z M 82.355469 16.523438 "/>
<path style=" stroke:none;fill-rule:nonzero;fill:rgb(0%,0%,0%);fill-opacity:1;" d="M 86.9375 14.15625 C 86.917969 14.226562 86.90625 14.765625 86.917969 15.355469 L 86.949219 16.414062 L 88.359375 16.464844 L 89.773438 16.515625 L 89.804688 21.414062 L 89.824219 26.300781 L 90.964844 26.339844 C 91.582031 26.363281 92.195312 26.363281 92.316406 26.332031 L 92.550781 26.300781 L 92.570312 21.402344 L 92.597656 16.515625 L 94.042969 16.484375 L 95.484375 16.453125 L 95.457031 15.265625 L 95.425781 14.074219 L 91.207031 14.042969 C 87.773438 14.023438 86.988281 14.042969 86.9375 14.15625 Z M 86.9375 14.15625 "/>
<path style=" stroke:none;fill-rule:nonzero;fill:rgb(0%,0%,0%);fill-opacity:1;" d="M 99.300781 14.503906 C 99.191406 14.777344 98.484375 16.523438 97.726562 18.394531 C 96.980469 20.265625 95.960938 22.792969 95.457031 24.023438 C 94.960938 25.242188 94.578125 26.261719 94.609375 26.289062 C 94.660156 26.339844 97.414062 26.332031 97.464844 26.28125 C 97.484375 26.261719 97.695312 25.722656 97.9375 25.089844 L 98.371094 23.933594 L 103.085938 23.933594 L 103.367188 24.695312 C 103.53125 25.113281 103.722656 25.652344 103.8125 25.882812 L 103.972656 26.320312 L 105.425781 26.320312 C 106.222656 26.320312 106.878906 26.300781 106.878906 26.269531 C 106.878906 26.25 106.507812 25.324219 106.0625 24.21875 C 105.609375 23.109375 104.519531 20.394531 103.628906 18.191406 C 102.753906 15.984375 101.976562 14.144531 101.90625 14.105469 C 101.835938 14.066406 101.269531 14.023438 100.644531 14.023438 L 99.503906 14.023438 Z M 101.410156 19.53125 C 101.753906 20.445312 102.035156 21.25 102.035156 21.3125 C 102.035156 21.414062 101.703125 21.441406 100.722656 21.441406 C 99.714844 21.441406 99.410156 21.414062 99.410156 21.3125 C 99.410156 21.238281 99.683594 20.457031 100.019531 19.574219 C 100.351562 18.6875 100.625 17.945312 100.625 17.925781 C 100.625 17.90625 100.664062 17.886719 100.703125 17.886719 C 100.746094 17.886719 101.066406 18.628906 101.410156 19.53125 Z M 101.410156 19.53125 "/>
<path style=" stroke:none;fill-rule:nonzero;fill:rgb(0%,0%,0%);fill-opacity:1;" d="M 19.699219 17.894531 C 15.089844 18.496094 11.101562 21.929688 9.546875 26.636719 C 9.09375 27.988281 8.960938 28.789062 9.003906 29.929688 L 9.03125 30.84375 L 9.851562 30.875 L 10.679688 30.90625 L 10.726562 29.65625 C 10.777344 28.3125 10.910156 27.722656 11.433594 26.382812 C 11.988281 24.96875 12.738281 23.871094 13.976562 22.613281 C 15.613281 20.976562 17.085938 20.140625 19.214844 19.707031 C 21.253906 19.277344 23.433594 19.574219 25.3125 20.519531 C 28.652344 22.214844 31.5 26.289062 31.640625 29.625 C 31.660156 30.070312 31.679688 30.476562 31.691406 30.519531 C 31.691406 30.558594 32.0625 30.589844 32.527344 30.570312 L 33.355469 30.539062 L 33.347656 29.675781 C 33.316406 28.121094 32.628906 26.046875 31.527344 24.226562 C 28.84375 19.757812 24.261719 17.296875 19.699219 17.894531 Z M 19.699219 17.894531 "/>
<path style=" stroke:none;fill-rule:nonzero;fill:rgb(0%,0%,0%);fill-opacity:1;" d="M 18.792969 23.535156 C 18.671875 23.617188 18.5 23.863281 18.410156 24.066406 C 18.257812 24.429688 16.601562 28.863281 14.269531 35.132812 C 13.664062 36.769531 13.140625 38.070312 13.109375 38.027344 C 13.070312 37.988281 12.917969 36.992188 12.777344 35.824219 C 12.394531 32.835938 12.28125 32.335938 11.910156 31.960938 L 11.605469 31.65625 L 7.519531 31.65625 L 7.519531 32.875 L 9.203125 32.925781 C 10.121094 32.957031 10.921875 33.019531 10.960938 33.058594 C 11 33.097656 11.261719 34.765625 11.527344 36.769531 C 11.796875 38.761719 12.0625 40.570312 12.121094 40.773438 C 12.292969 41.421875 13 41.617188 13.402344 41.128906 C 13.542969 40.964844 13.878906 40.089844 15.402344 35.976562 C 18.167969 28.515625 18.671875 27.144531 18.671875 27.09375 C 18.671875 27.0625 18.792969 26.777344 18.933594 26.453125 L 19.1875 25.863281 L 19.378906 26.320312 C 19.488281 26.574219 19.832031 27.488281 20.144531 28.355469 C 21.609375 32.398438 22.425781 34.523438 22.597656 34.757812 C 22.859375 35.113281 23.394531 35.152344 23.699219 34.828125 C 23.910156 34.605469 24.414062 33.324219 25.25 30.894531 C 25.472656 30.253906 25.6875 29.683594 25.734375 29.644531 C 25.828125 29.542969 25.777344 29.402344 27.433594 34.207031 C 28.148438 36.269531 28.8125 38.121094 28.90625 38.292969 C 29.105469 38.6875 29.460938 38.871094 29.824219 38.78125 C 30.238281 38.679688 30.429688 38.089844 30.914062 35.386719 C 31.15625 34.035156 31.378906 32.894531 31.417969 32.867188 C 31.449219 32.835938 32.234375 32.792969 33.175781 32.785156 L 34.871094 32.773438 L 34.898438 32.082031 L 34.929688 31.390625 L 32.863281 31.421875 C 30.117188 31.464844 30.246094 31.363281 29.785156 34.023438 C 29.640625 34.878906 29.46875 35.570312 29.417969 35.558594 C 29.320312 35.539062 29.136719 35.039062 27.351562 29.929688 C 26.695312 28.039062 26.472656 27.539062 26.230469 27.308594 C 25.886719 26.992188 25.636719 27.003906 25.261719 27.378906 C 25.039062 27.582031 24.472656 29.003906 23.65625 31.371094 C 23.445312 32.003906 23.222656 32.511719 23.171875 32.488281 C 23.070312 32.460938 22.839844 31.839844 21.09375 27.132812 C 20.417969 25.316406 19.78125 23.730469 19.660156 23.609375 C 19.40625 23.332031 19.105469 23.3125 18.792969 23.535156 Z M 18.792969 23.535156 "/>
<path style=" stroke:none;fill-rule:nonzero;fill:rgb(0%,0%,0%);fill-opacity:1;" d="M 32.054688 33.527344 C 31.820312 33.890625 31.75 34.847656 31.699219 38.210938 L 31.640625 41.921875 L 10.75 41.921875 L 10.6875 38.617188 C 10.648438 36.796875 10.578125 35.019531 10.515625 34.65625 C 10.445312 34.289062 10.394531 33.933594 10.394531 33.863281 C 10.394531 33.78125 10.183594 33.738281 9.6875 33.738281 L 8.980469 33.738281 L 8.980469 41.941406 L 8.328125 41.992188 C 7.621094 42.054688 7.265625 42.226562 6.996094 42.652344 C 6.832031 42.90625 6.8125 43.261719 6.8125 46.644531 C 6.8125 50.121094 6.824219 50.375 7.003906 50.640625 C 7.417969 51.261719 6.539062 51.21875 21.09375 51.21875 C 35.738281 51.21875 34.871094 51.261719 35.292969 50.628906 C 35.457031 50.375 35.476562 50.03125 35.503906 46.746094 C 35.527344 43.457031 35.515625 43.109375 35.355469 42.792969 C 35.082031 42.277344 34.738281 42.0625 34.03125 42.003906 L 33.40625 41.941406 L 33.40625 37.785156 C 33.40625 34.554688 33.375 33.628906 33.285156 33.597656 C 32.984375 33.496094 32.09375 33.457031 32.054688 33.527344 Z M 33.789062 46.617188 L 33.808594 49.492188 L 8.578125 49.492188 L 8.578125 49.207031 C 8.546875 47.855469 8.597656 43.851562 8.640625 43.78125 C 8.667969 43.738281 14.332031 43.710938 21.226562 43.71875 L 33.757812 43.75 Z M 33.789062 46.617188 "/>
<path style=" stroke:none;fill-rule:nonzero;fill:rgb(0%,0%,0%);fill-opacity:1;" d="M 48.695312 33.964844 C 48.667969 34.207031 48.554688 35.425781 48.445312 36.6875 C 48.132812 40.375 47.738281 44.726562 47.667969 45.292969 L 47.605469 45.832031 L 48.980469 45.832031 C 50.332031 45.832031 50.363281 45.824219 50.414062 45.597656 C 50.433594 45.476562 50.554688 44.09375 50.664062 42.53125 C 50.90625 39.269531 50.96875 38.617188 51.058594 38.617188 C 51.097656 38.617188 51.59375 39.980469 52.167969 41.636719 C 52.742188 43.304688 53.300781 44.910156 53.410156 45.191406 L 53.601562 45.730469 L 54.410156 45.730469 C 55.144531 45.730469 55.214844 45.710938 55.308594 45.496094 C 55.359375 45.375 55.882812 43.882812 56.476562 42.175781 C 57.761719 38.476562 57.71875 38.578125 57.78125 38.628906 C 57.832031 38.679688 58.082031 41.382812 58.234375 43.496094 C 58.292969 44.308594 58.367188 45.164062 58.394531 45.394531 L 58.445312 45.832031 L 59.808594 45.832031 C 61.03125 45.832031 61.160156 45.8125 61.160156 45.652344 C 61.160156 45.558594 61.019531 43.941406 60.859375 42.074219 C 60.6875 40.203125 60.445312 37.519531 60.324219 36.128906 L 60.101562 33.585938 L 58.628906 33.558594 L 57.15625 33.527344 L 56.347656 35.640625 C 55.894531 36.808594 55.289062 38.382812 54.996094 39.144531 C 54.710938 39.917969 54.4375 40.546875 54.398438 40.546875 C 54.359375 40.546875 53.734375 38.984375 53.007812 37.0625 L 51.695312 33.585938 L 50.222656 33.558594 L 48.757812 33.527344 Z M 48.695312 33.964844 "/>
<path style=" stroke:none;fill-rule:nonzero;fill:rgb(0%,0%,0%);fill-opacity:1;" d="M 62.371094 39.683594 L 62.371094 45.832031 L 69.347656 45.832031 L 69.316406 44.632812 L 69.285156 43.445312 L 67.1875 43.414062 L 65.085938 43.394531 L 65.117188 42.144531 L 65.148438 40.90625 L 67.144531 40.875 L 69.132812 40.855469 L 69.132812 38.515625 L 67.144531 38.496094 L 65.148438 38.464844 L 65.117188 37.214844 L 65.085938 35.976562 L 69.335938 35.976562 L 69.335938 33.535156 L 62.371094 33.535156 Z M 62.371094 39.683594 "/>
<path style=" stroke:none;fill-rule:nonzero;fill:rgb(0%,0%,0%);fill-opacity:1;" d="M 71 33.660156 C 70.972656 33.730469 70.960938 36.484375 70.972656 39.785156 L 71 45.78125 L 73.160156 45.8125 C 75.070312 45.832031 75.402344 45.8125 76.066406 45.628906 C 78.167969 45.050781 79.703125 43.617188 80.347656 41.65625 C 80.699219 40.578125 80.699219 38.800781 80.347656 37.722656 C 79.75 35.894531 78.347656 34.503906 76.460938 33.871094 C 75.695312 33.617188 75.511719 33.597656 73.351562 33.558594 C 71.507812 33.527344 71.042969 33.546875 71 33.660156 Z M 75.007812 36.085938 C 75.714844 36.238281 76.027344 36.414062 76.601562 36.953125 C 78.269531 38.515625 77.984375 41.636719 76.078125 42.84375 C 75.632812 43.128906 74.707031 43.394531 74.171875 43.394531 L 73.808594 43.394531 L 73.746094 42.398438 C 73.65625 41.136719 73.65625 39.460938 73.746094 37.519531 L 73.808594 35.976562 L 74.140625 35.976562 C 74.320312 35.976562 74.714844 36.027344 75.007812 36.085938 Z M 75.007812 36.085938 "/>
</g>
</svg>
